<?xml version="1.0" encoding="UTF-8" standalone="no"?>
<!DOCTYPE svg PUBLIC "-//W3C//DTD SVG 20010904//EN"
              "http://www.w3.org/TR/2001/REC-SVG-20010904/DTD/svg10.dtd">

<svg xmlns="http://www.w3.org/2000/svg"
     width="11.1111in" height="6.66667in"
     viewBox="0 0 1000 600">
  <path id="Path"
        fill="black" stroke="black" stroke-width="1"
        d="M 465.81,233.00
           C 465.81,233.00 444.69,233.00 444.69,233.00
             444.69,233.00 369.02,115.83 369.02,115.83
             367.10,112.89 365.52,109.82 364.30,106.61
             364.30,106.61 363.69,106.61 363.69,106.61
             364.23,109.76 364.50,116.48 364.50,126.80
             364.50,126.80 364.50,233.00 364.50,233.00
             364.50,233.00 347.28,233.00 347.28,233.00
             347.28,233.00 347.28,86.00 347.28,86.00
             347.28,86.00 369.62,86.00 369.62,86.00
             369.62,86.00 443.25,201.33 443.25,201.33
             446.32,206.11 448.30,209.39 449.20,211.17
             449.20,211.17 449.61,211.17 449.61,211.17
             448.93,206.93 448.59,199.73 448.59,189.55
             448.59,189.55 448.59,86.00 448.59,86.00
             448.59,86.00 465.81,86.00 465.81,86.00
             465.81,86.00 465.81,233.00 465.81,233.00 Z
           M 545.91,235.00
           C 530.38,235.00 517.99,230.14 508.73,220.41
             499.47,210.68 494.84,197.78 494.84,181.72
             494.84,164.23 499.66,150.57 509.30,140.75
             518.94,130.92 531.97,126.00 548.38,126.00
             564.02,126.00 576.23,130.78 585.02,140.34
             593.80,149.90 598.20,163.15 598.20,180.09
             598.20,196.70 593.47,210.00 584.00,220.00
             574.53,230.00 561.83,235.00 545.91,235.00 Z
           M 547.14,140.16
           C 536.35,140.16 527.80,143.79 521.52,151.06
             515.22,158.32 512.08,168.34 512.08,181.11
             512.08,193.41 515.25,203.11 521.61,210.20
             527.97,217.30 536.48,220.84 547.14,220.84
             558.02,220.84 566.38,217.37 572.22,210.41
             578.06,203.45 580.98,193.55 580.98,180.70
             580.98,167.73 578.06,157.73 572.22,150.70
             566.38,143.67 558.02,140.16 547.14,140.16 Z
           M 673.73,231.66
           C 669.77,233.88 664.54,235.00 658.05,235.00
             639.65,235.00 630.45,224.78 630.45,204.33
             630.45,204.33 630.45,142.36 630.45,142.36
             630.45,142.36 612.41,142.36 612.41,142.36
             612.41,142.36 612.41,128.00 612.41,128.00
             612.41,128.00 630.45,128.00 630.45,128.00
             630.45,128.00 630.45,102.42 630.45,102.42
             630.45,102.42 647.27,97.00 647.27,97.00
             647.27,97.00 647.27,128.00 647.27,128.00
             647.27,128.00 673.73,128.00 673.73,128.00
             673.73,128.00 673.73,142.36 673.73,142.36
             673.73,142.36 647.27,142.36 647.27,142.36
             647.27,142.36 647.27,201.33 647.27,201.33
             647.27,208.34 648.46,213.34 650.86,216.34
             653.25,219.34 657.22,220.84 662.75,220.84
             667.00,220.84 670.66,219.56 673.73,217.00
             673.73,217.00 673.73,231.66 673.73,231.66 Z
           M 220.09,513.00
           C 220.09,513.00 201.02,513.00 201.02,513.00
             201.02,513.00 185.44,471.48 185.44,471.48
             185.44,471.48 123.09,471.48 123.09,471.48
             123.09,471.48 108.42,513.00 108.42,513.00
             108.42,513.00 89.25,513.00 89.25,513.00
             89.25,513.00 145.64,366.00 145.64,366.00
             145.64,366.00 163.48,366.00 163.48,366.00
             163.48,366.00 220.09,513.00 220.09,513.00 Z
           M 179.80,456.00
           C 179.80,456.00 156.73,393.83 156.73,393.83
             155.97,391.78 155.22,388.50 154.47,384.00
             154.47,384.00 154.06,384.00 154.06,384.00
             153.38,388.17 152.59,391.45 151.70,393.83
             151.70,393.83 128.84,456.00 128.84,456.00
             128.84,456.00 179.80,456.00 179.80,456.00 Z
           M 317.56,408.00
           C 317.56,408.00 275.73,513.00 275.73,513.00
             275.73,513.00 259.22,513.00 259.22,513.00
             259.22,513.00 219.44,408.00 219.44,408.00
             219.44,408.00 237.89,408.00 237.89,408.00
             237.89,408.00 264.55,484.30 264.55,484.30
             266.54,489.90 267.77,494.79 268.25,498.95
             268.25,498.95 268.66,498.95 268.66,498.95
             269.34,493.70 270.44,488.95 271.94,484.70
             271.94,484.70 299.83,408.00 299.83,408.00
             299.83,408.00 317.56,408.00 317.56,408.00 Z
           M 411.19,513.00
           C 411.19,513.00 394.36,513.00 394.36,513.00
             394.36,513.00 394.36,496.12 394.36,496.12
             394.36,496.12 393.95,496.12 393.95,496.12
             386.64,508.71 375.88,515.00 361.66,515.00
             351.20,515.00 343.01,512.27 337.09,506.81
             331.19,501.36 328.23,494.12 328.23,485.09
             328.23,465.76 339.79,454.51 362.89,451.34
             362.89,451.34 394.36,447.00 394.36,447.00
             394.36,429.11 387.15,420.16 372.73,420.16
             360.09,420.16 348.67,424.44 338.48,433.00
             338.48,433.00 338.48,415.81 338.48,415.81
             348.80,409.27 360.70,406.00 374.17,406.00
             398.85,406.00 411.19,419.00 411.19,445.00
             411.19,445.00 411.19,513.00 411.19,513.00 Z
           M 394.36,460.44
           C 394.36,460.44 369.03,463.84 369.03,463.84
             361.24,464.91 355.36,466.79 351.39,469.50
             347.43,472.20 345.45,476.98 345.45,483.84
             345.45,488.84 347.28,492.93 350.94,496.09
             354.59,499.26 359.46,500.84 365.55,500.84
             373.89,500.84 380.77,498.00 386.20,492.30
             391.64,486.59 394.36,479.37 394.36,470.64
             394.36,470.64 394.36,460.44 394.36,460.44 Z
           M 451.62,381.00
           C 448.62,381.00 446.06,379.97 443.94,377.91
             441.82,375.84 440.77,373.21 440.77,370.05
             440.77,366.88 441.82,364.25 443.94,362.16
             446.06,360.05 448.62,359.00 451.62,359.00
             454.71,359.00 457.32,360.05 459.47,362.16
             461.62,364.25 462.70,366.88 462.70,370.05
             462.70,373.08 461.62,375.66 459.47,377.80
             457.32,379.93 454.71,381.00 451.62,381.00 Z
           M 459.84,513.00
           C 459.84,513.00 443.02,513.00 443.02,513.00
             443.02,513.00 443.02,408.00 443.02,408.00
             443.02,408.00 459.84,408.00 459.84,408.00
             459.84,408.00 459.84,513.00 459.84,513.00 Z
           M 510.84,513.00
           C 510.84,513.00 494.02,513.00 494.02,513.00
             494.02,513.00 494.02,358.00 494.02,358.00
             494.02,358.00 510.84,358.00 510.84,358.00
             510.84,358.00 510.84,513.00 510.84,513.00 Z
           M 620.19,513.00
           C 620.19,513.00 603.36,513.00 603.36,513.00
             603.36,513.00 603.36,496.12 603.36,496.12
             603.36,496.12 602.95,496.12 602.95,496.12
             595.64,508.71 584.88,515.00 570.66,515.00
             560.20,515.00 552.01,512.27 546.09,506.81
             540.19,501.36 537.23,494.12 537.23,485.09
             537.23,465.76 548.79,454.51 571.89,451.34
             571.89,451.34 603.36,447.00 603.36,447.00
             603.36,429.11 596.15,420.16 581.73,420.16
             569.09,420.16 557.67,424.44 547.48,433.00
             547.48,433.00 547.48,415.81 547.48,415.81
             557.80,409.27 569.70,406.00 583.17,406.00
             607.85,406.00 620.19,419.00 620.19,445.00
             620.19,445.00 620.19,513.00 620.19,513.00 Z
           M 603.36,460.44
           C 603.36,460.44 578.03,463.84 578.03,463.84
             570.24,464.91 564.36,466.79 560.39,469.50
             556.43,472.20 554.45,476.98 554.45,483.84
             554.45,488.84 556.28,492.93 559.94,496.09
             563.59,499.26 568.46,500.84 574.55,500.84
             582.89,500.84 589.77,498.00 595.20,492.30
             600.64,486.59 603.36,479.37 603.36,470.64
             603.36,470.64 603.36,460.44 603.36,460.44 Z
           M 669.25,497.36
           C 669.25,497.36 668.84,497.36 668.84,497.36
             668.84,497.36 668.84,513.00 668.84,513.00
             668.84,513.00 652.02,513.00 652.02,513.00
             652.02,513.00 652.02,358.00 652.02,358.00
             652.02,358.00 668.84,358.00 668.84,358.00
             668.84,358.00 668.84,426.92 668.84,426.92
             668.84,426.92 669.25,426.92 669.25,426.92
             677.52,412.98 689.62,406.00 705.55,406.00
             719.02,406.00 729.55,410.66 737.17,419.98
             744.80,429.31 748.61,441.80 748.61,457.45
             748.61,474.87 744.34,488.82 735.80,499.30
             727.25,509.77 715.57,515.00 700.73,515.00
             686.86,515.00 676.36,509.12 669.25,497.36 Z
           M 668.84,455.53
           C 668.84,455.53 668.84,470.03 668.84,470.03
             668.84,478.62 671.66,485.90 677.30,491.88
             682.94,497.86 690.10,500.84 698.78,500.84
             708.97,500.84 716.95,497.00 722.72,489.30
             728.50,481.59 731.39,470.88 731.39,457.16
             731.39,445.61 728.69,436.55 723.28,430.00
             717.88,423.44 710.57,420.16 701.34,420.16
             691.57,420.16 683.71,423.52 677.77,430.25
             671.82,436.97 668.84,445.40 668.84,455.53 Z
           M 791.84,513.00
           C 791.84,513.00 775.02,513.00 775.02,513.00
             775.02,513.00 775.02,358.00 775.02,358.00
             775.02,358.00 791.84,358.00 791.84,358.00
             791.84,358.00 791.84,513.00 791.84,513.00 Z
           M 910.41,464.25
           C 910.41,464.25 836.28,464.25 836.28,464.25
             836.55,475.94 839.69,484.96 845.70,491.31
             851.72,497.67 859.99,500.84 870.52,500.84
             882.35,500.84 893.22,496.90 903.12,489.00
             903.12,489.00 903.12,504.89 903.12,504.89
             893.89,511.63 881.69,515.00 866.52,515.00
             851.68,515.00 840.02,510.27 831.55,500.81
             823.08,491.36 818.84,478.05 818.84,460.91
             818.84,444.71 823.47,431.51 832.73,421.31
             841.99,411.11 853.49,406.00 867.23,406.00
             880.97,406.00 891.60,410.38 899.12,419.12
             906.64,427.88 910.41,440.02 910.41,455.56
             910.41,455.56 910.41,464.25 910.41,464.25 Z
           M 893.19,450.00
           C 893.11,440.59 890.77,433.26 886.16,428.02
             881.55,422.78 875.14,420.16 866.94,420.16
             859.01,420.16 852.27,422.91 846.73,428.42
             841.20,433.92 837.79,441.12 836.48,450.00
             836.48,450.00 893.19,450.00 893.19,450.00 Z" />
</svg>
